<svg width="24" height="24" viewBox="0 0 24 24" fill="none" xmlns="http://www.w3.org/2000/svg"><path d="M19.9364 12.6083C20.3117 15.433 18.9416 17.033 18.0329 17.4083C16.9089 17.8725 16.4695 18.6625 15.9858 19.7194C15.6566 19.1926 14.5873 18.0404 12.9438 17.6453C10.8895 17.1515 7.19566 18.3367 5.89196 16.1046C4.62097 13.9285 5.54654 11.3394 6.1795 8.97785C6.19579 8.91705 6.2119 8.8564 6.22776 8.79592C6.20485 8.78421 6.18215 8.77244 6.15966 8.76058C3.66062 7.44296 3.82176 5.19592 4.25245 4.64777C5.47172 8.1285 7.89595 4.53375 12.6278 4.29221C14.8641 4.17805 16.7479 4.89569 17.8415 6.62717L17.4927 6.05911C17.7369 5.79055 18.1669 5.04079 18.1586 4.549C19.0278 5.87246 18.9488 7.68974 19.1265 8.3811C19.3043 9.07246 19.5611 9.78357 19.9364 12.6083Z" fill="white"/><path d="M18.0329 17.4083L18.0966 17.5623L18.0966 17.5623L18.0329 17.4083ZM19.9364 12.6083L20.1016 12.5863L20.1016 12.5863L19.9364 12.6083ZM19.1265 8.3811L19.2879 8.33959L19.2879 8.33959L19.1265 8.3811ZM18.1586 4.549L18.2979 4.45751C18.2572 4.39551 18.1804 4.36788 18.1096 4.38972C18.0387 4.41157 17.9907 4.47762 17.992 4.55179L18.1586 4.549ZM5.89196 16.1046L6.03587 16.0205L6.03587 16.0205L5.89196 16.1046ZM12.9438 17.6453L12.9049 17.8074L12.9049 17.8074L12.9438 17.6453ZM15.9858 19.7194L15.8445 19.8077C15.877 19.8597 15.9354 19.8897 15.9966 19.8857C16.0578 19.8817 16.1118 19.8445 16.1373 19.7887L15.9858 19.7194ZM17.4927 6.05911L17.3694 5.94697C17.3195 6.00185 17.3119 6.0831 17.3507 6.14631L17.4927 6.05911ZM17.8415 6.62717L17.7005 6.71617C17.7495 6.79365 17.8518 6.81709 17.9296 6.76865C18.0073 6.72021 18.0314 6.61806 17.9835 6.53997L17.8415 6.62717ZM12.6278 4.29221L12.6193 4.12576L12.6278 4.29221ZM4.25245 4.64777L4.40975 4.59267C4.38963 4.53522 4.33979 4.49332 4.27975 4.48335C4.2197 4.47338 4.159 4.49694 4.1214 4.5448L4.25245 4.64777ZM6.15966 8.76058L6.08193 8.90801L6.08193 8.90801L6.15966 8.76058ZM6.22776 8.79592L6.38897 8.8382C6.40884 8.76246 6.3733 8.68309 6.30356 8.64748L6.22776 8.79592ZM6.1795 8.97785L6.34048 9.021L6.34048 9.021L6.1795 8.97785ZM18.0966 17.5623C19.0877 17.1529 20.485 15.4714 20.1016 12.5863L19.7712 12.6302C20.1385 15.3945 18.7954 16.913 17.9693 17.2542L18.0966 17.5623ZM20.1016 12.5863C19.7249 9.75123 19.466 9.03211 19.2879 8.33959L18.9651 8.42261C19.1426 9.1128 19.3973 9.81591 19.7712 12.6302L20.1016 12.5863ZM19.2879 8.33959C19.2471 8.18082 19.2198 7.95079 19.1882 7.65886C19.1572 7.37199 19.1228 7.03413 19.0665 6.67618C18.954 5.96157 18.7518 5.14869 18.2979 4.45751L18.0193 4.64049C18.4345 5.27277 18.6274 6.03026 18.7372 6.72799C18.792 7.07622 18.8255 7.40503 18.8568 7.6947C18.8876 7.97931 18.9171 8.2357 18.9651 8.42261L19.2879 8.33959ZM5.74804 16.1886C6.44788 17.3868 7.78298 17.6488 9.13089 17.6934C9.80703 17.7157 10.5133 17.6835 11.1604 17.6768C11.8153 17.67 12.4131 17.6892 12.9049 17.8074L12.9828 17.4833C12.4473 17.3545 11.8131 17.3367 11.1569 17.3435C10.4929 17.3503 9.80899 17.3823 9.14191 17.3602C7.80341 17.3159 6.63974 17.0544 6.03587 16.0205L5.74804 16.1886ZM12.9049 17.8074C14.4967 18.19 15.5329 19.3092 15.8445 19.8077L16.1271 19.631C15.7803 19.0761 14.6778 17.8907 12.9828 17.4833L12.9049 17.8074ZM17.992 4.55179C17.9954 4.75741 17.9044 5.03872 17.7704 5.31505C17.6379 5.58813 17.4776 5.82796 17.3694 5.94697L17.616 6.17124C17.752 6.02169 17.9287 5.75237 18.0703 5.46049C18.2103 5.17185 18.3301 4.83239 18.3253 4.54621L17.992 4.55179ZM17.3507 6.14631L17.6994 6.71437L17.9835 6.53997L17.6347 5.9719L17.3507 6.14631ZM12.6193 4.12576C10.2201 4.24823 8.39077 5.22461 7.06565 5.70932C6.39007 5.95643 5.87375 6.06577 5.46008 5.93563C5.06155 5.81025 4.70765 5.44312 4.40975 4.59267L4.09516 4.70286C4.40689 5.59278 4.81324 6.08158 5.36005 6.2536C5.89171 6.42085 6.50579 6.26904 7.18016 6.02237C8.55492 5.5195 10.3037 4.57773 12.6363 4.45866L12.6193 4.12576ZM17.9824 6.53817C16.8474 4.74108 14.8961 4.00954 12.6193 4.12576L12.6363 4.45866C14.8321 4.34657 16.6484 5.05031 17.7005 6.71617L17.9824 6.53817ZM16.1373 19.7887C16.6182 18.7379 17.0351 18.0007 18.0966 17.5623L17.9693 17.2542C16.7827 17.7443 16.3207 18.5871 15.8342 19.65L16.1373 19.7887ZM4.1214 4.5448C3.98767 4.715 3.8904 4.99195 3.85182 5.3167C3.81268 5.6462 3.83181 6.04131 3.94669 6.45975C4.17758 7.30076 4.79315 8.2285 6.08193 8.90801L6.2374 8.61315C5.02713 7.97504 4.47375 7.12045 4.26813 6.3715C4.16475 5.99495 4.14872 5.64318 4.18283 5.35602C4.21751 5.06409 4.30189 4.85461 4.3835 4.75074L4.1214 4.5448ZM6.08193 8.90801C6.10506 8.9202 6.1284 8.93232 6.15197 8.94435L6.30356 8.64748C6.28129 8.63611 6.25923 8.62467 6.2374 8.61315L6.08193 8.90801ZM6.06655 8.75363C6.05077 8.8138 6.03474 8.87416 6.01851 8.93471L6.34048 9.021C6.35685 8.95995 6.37302 8.89901 6.38897 8.8382L6.06655 8.75363ZM6.01851 8.9347C5.70477 10.1053 5.30988 11.3606 5.15637 12.5901C5.0022 13.8249 5.08734 15.0574 5.74804 16.1886L6.03587 16.0205C5.42559 14.9756 5.33803 13.8256 5.48713 12.6314C5.6369 11.4319 6.02127 10.212 6.34048 9.021L6.01851 8.9347Z" fill="black"/><path d="M7.54407 8.79373C12.9011 7.89299 14.0165 12.4481 13.9046 14.8382C12.6172 13.5832 10.6651 14.5442 9.42061 13.2382C8.78205 12.568 8.25518 9.64311 7.54407 8.79373Z" fill="black"/><path d="M18.5149 8.67749C16.7174 10.0009 17.4021 14.592 17.4285 14.88C17.8305 14.0483 18.4992 14.3861 18.7323 13.2207C18.831 12.7269 19.1273 11.3837 18.5149 8.67749Z" fill="black"/></svg>